<?xml version="1.0" encoding="UTF-8" standalone="no"?>
<svg
   xmlns:dc="http://purl.org/dc/elements/1.1/"
   xmlns:cc="http://creativecommons.org/ns#"
   xmlns:rdf="http://www.w3.org/1999/02/22-rdf-syntax-ns#"
   xmlns:svg="http://www.w3.org/2000/svg"
   xmlns="http://www.w3.org/2000/svg"
   xmlns:sodipodi="http://sodipodi.sourceforge.net/DTD/sodipodi-0.dtd"
   xmlns:inkscape="http://www.inkscape.org/namespaces/inkscape"
   version="1.0"
   width="512.000000pt"
   height="512.000000pt"
   viewBox="0 0 512.000000 512.000000"
   preserveAspectRatio="xMidYMid meet"
   id="svg10"
   sodipodi:docname="icon.svg"
   inkscape:version="0.92.1 r15371">
  <defs
     id="defs14" />
  <sodipodi:namedview
     pagecolor="#ffffff"
     bordercolor="#666666"
     borderopacity="1"
     objecttolerance="10"
     gridtolerance="10"
     guidetolerance="10"
     inkscape:pageopacity="0"
     inkscape:pageshadow="2"
     inkscape:window-width="1342"
     inkscape:window-height="693"
     id="namedview12"
     showgrid="false"
     inkscape:zoom="0.34570313"
     inkscape:cx="321.20477"
     inkscape:cy="377.45073"
     inkscape:window-x="0"
     inkscape:window-y="0"
     inkscape:window-maximized="0"
     inkscape:current-layer="svg10" />
  <metadata
     id="metadata2">
Created by potrace 1.15, written by Peter Selinger 2001-2017
<rdf:RDF>
  <cc:Work
     rdf:about="">
    <dc:format>image/svg+xml</dc:format>
    <dc:type
       rdf:resource="http://purl.org/dc/dcmitype/StillImage" />
  </cc:Work>
</rdf:RDF>
</metadata>
  <rect
     style="fill:#000000;fill-opacity:1;stroke:none;stroke-width:0.4566828"
     id="rect4482"
     width="511.75046"
     height="511.75049"
     x="1.2204602"
     y="-0.33230981" />
  <path
     d="m 512.97093,-0.33230981 c 0,0 0,511.75046981 0,511.75046981 0,0 -511.7504698,0 -511.7504698,0 0,0 0,-511.75046981 0,-511.75046981 0,0 511.7504698,0 511.7504698,0 z M 437.04795,184.17773 c -5.79717,2.27889 -6.51682,11.11458 -5.57728,16.392 2.049,11.46442 10.70478,21.10971 11.44442,32.98391 0.86958,14.14311 -7.75622,28.63604 -17.90127,37.81157 -2.62872,2.36884 -7.47636,6.59678 -10.99464,7.15651 -4.05802,0.64968 -15.57241,-6.3769 -22.98879,-6.88664 0,0 -13.99318,0.89955 -13.99318,0.89955 -6.30692,0.0299 -11.82424,0.22989 -17.99123,1.92906 -5.35739,1.46929 -9.11555,4.34789 -13.99318,6.7967 -14.86275,7.48634 -22.46904,12.12408 -34.89299,23.67844 -7.38639,6.87665 -13.49341,15.78231 -22.07923,21.30962 -3.82813,2.4688 -10.43491,3.82813 -14.99269,5.1175 -18.36104,5.19747 -15.08265,5.1375 -33.98342,5.1375 0,0 -0.90957,-13.99318 -0.90957,-13.99318 -0.58971,-8.53584 0.92956,-10.17504 -2.96855,-18.99075 -1.4293,-3.24841 -5.96709,-11.31448 -10.41492,-7.37639 -1.46927,1.29936 -2.76863,5.44734 -3.50828,7.37639 0,0 -6.7567,15.99222 -6.7567,15.99222 -1.90907,4.87761 -2.58874,8.56581 -8.42589,9.78522 -2.6887,0.55973 -15.24257,3.03852 -16.99172,2.51877 -3.29839,-0.96953 -6.22696,-4.78766 -8.41589,-7.30643 0,0 -11.99416,-12.99367 -11.99416,-12.99367 -2.40882,-2.72867 -7.97611,-9.4154 -11.25451,-3.83813 -2.2489,4.14798 -1.49927,15.33252 0,19.83033 0,0 3.05851,7.99611 3.05851,7.99611 0.97952,3.19843 0.79961,5.84715 2.54876,8.9956 1.86908,3.36836 9.35543,11.38446 12.314,17.99124 2.12895,4.76767 1.23939,7.94612 3.74817,12.99366 2.29888,4.63774 6.80668,9.10556 9.82521,15.99221 0,0 3.60823,9.99512 3.60823,9.99512 0,0 4.41785,6.99659 4.41785,6.99659 0.94953,1.83911 1.38932,4.13798 2.71867,5.69722 4.5278,5.28742 11.0846,1.09946 14.20308,2.49878 2.26889,1.0295 3.23842,3.6982 4.20795,5.79718 -6.51683,1.58922 -13.32351,0.92954 -19.99025,0.99951 0,0 -20.98977,2.43881 -20.98977,2.43881 0,0 -6.99659,-2.059 -6.99659,-2.059 -4.38786,-0.86957 -14.363,-0.71965 -16.72184,3.88811 -1.67918,3.25841 0.96952,7.12653 3.77815,8.71575 2.87859,1.6292 16.21209,2.95855 19.94028,3.00853 17.57143,0.19991 15.72233,-4.11799 33.98343,-2.15894 2.8686,0.29985 9.30547,0.53973 11.56436,2.16893 5.17746,3.73818 0.17991,9.01561 -3.56826,11.07461 -7.92613,4.33788 -11.34446,2.2489 -18.99074,2.2489 0,0 -8.99562,0.65968 -8.99562,0.65968 0,0 -7.99609,0 -7.99609,0 0,0 -28.98587,4.71769 -28.98587,4.71769 -7.61629,0.89957 -13.79328,-0.42978 -21.98928,1.50927 -6.99659,1.65919 -14.32302,6.75671 -5.81717,13.04364 8.77572,6.47685 21.36959,1.57923 30.80499,0 15.23257,-2.53876 41.02999,-2.4588 56.97222,-2.27889 0,0 9.99513,0.95954 9.99513,0.95954 0,0 11.99413,0 11.99413,0 4.70771,0.0999 10.93467,2.22891 14.48294,-1.38932 2.51878,-2.55876 3.84813,-9.05559 4.73769,-12.56388 1.95904,-7.67626 7.50634,-23.13872 14.76281,-26.81693 3.62822,-1.82911 16.32204,-1.79912 20.98976,-2.46879 11.45442,-1.6492 29.20576,-9.14554 37.68163,-16.98172 5.84715,-5.38737 15.08265,-18.59094 18.98074,-25.69748 2.74866,-5.00755 4.25793,-12.04412 9.30547,-14.99269 0.13993,6.27695 1.13944,14.12312 3.36835,19.99026 3.03852,8.00609 7.52633,11.99416 5.09752,21.98928 -1.61921,6.64676 -8.51585,13.19357 -15.46246,13.77328 -6.16699,0.50975 -12.56388,-3.31837 -16.42199,4.25792 -4.37787,8.57582 9.69526,9.0356 14.42296,8.95564 7.24647,-0.13993 5.72721,-1.49926 11.0846,-4.58776 0,0 8.90566,-4.19795 8.90566,-4.19795 0,0 9.99513,-6.20698 9.99513,-6.20698 4.60775,14.20308 4.39785,19.81034 -5.91712,30.98489 -2.28888,2.47879 -4.36787,5.18747 -7.11653,7.19649 -6.11702,4.46782 -9.61531,2.39883 -14.73282,9.81522 -0.89956,1.29937 -2.15895,3.31838 -2.25889,4.93759 -0.43979,7.02658 11.77425,5.72721 16.03218,5.46734 9.85519,-0.6197 13.47342,-10.37495 18.34105,-17.42151 0,0 7.04656,-8.99562 7.04656,-8.99562 0,0 6.88665,-9.99512 6.88665,-9.99512 2.37884,-3.34836 5.29742,-6.71673 5.55729,-10.99464 0.27986,-4.58777 -3.09849,-11.60434 -4.84764,-15.9922 -3.35836,-8.4259 -5.78717,-16.91176 -3.4883,-25.98733 1.93906,-7.61629 10.6748,-18.62093 15.44248,-24.98782 0,0 5.66723,-8.71574 5.66723,-8.71574 3.95807,-4.9376 9.24549,-9.21551 11.6843,-15.27257 2.40883,-5.99707 4.23794,-19.50049 3.38835,-25.98733 -0.76962,-5.87712 -4.72769,-13.75328 -2.12895,-18.99073 0,0 11.49439,-14.99269 11.49439,-14.99269 0,0 8.44588,-11.99416 8.44588,-11.99416 2.69868,-4.40785 3.0685,-6.73671 4.97758,-10.99464 0,0 3.53827,-6.99658 3.53827,-6.99658 2.18893,-5.21746 4.12798,-15.32253 3.90809,-20.98977 -0.77962,-19.8703 -16.78181,-31.31472 -16.95174,-49.97562 -1.8191,0.02 -4.25792,-0.07 -5.95709,0.59971 z"
     id="Selection"
     inkscape:connector-curvature="0"
     style="fill:#ffffff;stroke:#000000;stroke-width:0.99951261;fill-opacity:1" />
</svg>
